<svg xmlns="http://www.w3.org/2000/svg" viewBox="0 0 841.9 595.3">
  <g fill="#61DAFB">
    <path d="M666.3 296.5c0-38.2-25.5-72.4-68.5-95.9 7.1-39.6 4.5-82.6-7.1-120.1-12.1-39.1-33.5-72.3-61.5-97.8-29.7-26.7-65.1-42-102.6-43.7-41.2-1.8-80.7 11.6-112.3 38.5-31.6 26.9-54.2 65.8-65.7 111.4-11.3 44.7-10 91.1 4.2 133.5-42.9 23.4-67.8 56.5-67.8 93.7 0 38.2 25.5 72.4 68.5 95.9-7.1 39.6-4.5 82.6 7.1 120.1 12.1 39.1 33.5 72.3 61.5 97.8 29.7 26.7 65.1 42 102.6 43.7 41.2 1.8 80.7-11.6 112.3-38.5 31.6-26.9 54.2-65.8 65.7-111.4 11.3-44.7 10-91.1-4.2-133.5 42.9-23.4 67.8-56.5 67.8-93.7z"/>
    <circle cx="420.9" cy="296.5" r="45.7"/>
    <path d="M520.5 78.1c12.4 36.5 14.8 75.3 7.6 113.6 16.3 6.4 31.5 14.1 45.4 22.9 28.5-33.3 40.6-75.8 34-119.3-6.3-41-26.7-78.1-57.5-104.4-28.7-24.5-64.4-37.8-102-38.1-35.2-.3-69.3 10.8-98.5 31.4 13.4 7.8 26.3 16.7 38.8 26.4 31.6-19.8 68.4-31.8 108.7-30.8 30.9.8 60.2 11.4 84.5 30.9 24.7 19.8 42.4 46.5 51.8 78.1z"/>
  </g>
</svg>
